<?xml version="1.0" standalone="no"?>
<!DOCTYPE svg PUBLIC "-//W3C//DTD SVG 20010904//EN"
 "http://www.w3.org/TR/2001/REC-SVG-20010904/DTD/svg10.dtd">
<svg version="1.0" xmlns="http://www.w3.org/2000/svg"
 width="1280.000000pt" height="1220.000000pt" viewBox="0 0 1280.000000 1220.000000"
 preserveAspectRatio="xMidYMid meet">
<metadata>
Created by potrace 1.15, written by Peter Selinger 2001-2017
</metadata>
<g transform="translate(0.000000,1220.000000) scale(0.100000,-0.100000)"
fill="#000000" stroke="none">
<path d="M7756 12134 c-166 -160 -461 -310 -732 -375 -199 -47 -480 -63 -702
-38 -331 35 -706 155 -1071 341 -96 48 -179 88 -184 88 -6 0 -135 -48 -286
-106 -962 -369 -1421 -545 -1753 -673 l-376 -146 -1326 -1519 -1325 -1520 37
-43 c20 -24 444 -500 942 -1057 l905 -1015 136 0 136 -1 239 252 239 251 5
-3194 5 -3194 33 -85 c18 -47 37 -89 41 -93 4 -4 1650 -3 3657 4 l3648 12 108
75 108 76 0 290 c0 160 -5 707 -10 1216 -8 835 -15 1509 -39 4030 -4 432 -6
787 -5 789 2 2 123 -113 269 -255 147 -143 272 -260 278 -261 7 -2 58 7 115
20 l103 22 924 1035 924 1035 1 155 0 155 -1219 1325 -1219 1325 -928 419
c-511 231 -1081 489 -1267 573 -186 84 -339 153 -340 153 -1 -1 -33 -30 -71
-66z"/>
</g>
</svg>
